HIERARCHY
ROOT Hips
{
	OFFSET 0.000000 35.082581 0.000000
	CHANNELS 6 Xposition Yposition Zposition Xrotation Yrotation Zrotation 
	JOINT Spine
	{
		OFFSET 0.000000 6.876099 0.125700
		CHANNELS 3 Xrotation Yrotation Zrotation
		JOINT Spine1
		{
			OFFSET 0.000000 5.730043 0.104720
			CHANNELS 3 Xrotation Yrotation Zrotation
			JOINT Spine1_split
			{
				OFFSET 0.000000 5.730043 0.104720
				CHANNELS 3 Xrotation Yrotation Zrotation
				JOINT Spine2
				{
					OFFSET 0.000000 5.730043 0.104720
					CHANNELS 3 Xrotation Yrotation Zrotation
					JOINT Neck
					{
						OFFSET 0.000000 10.314075 0.188496
						CHANNELS 3 Xrotation Yrotation Zrotation
						JOINT Head
						{
							OFFSET 0.000000 7.643700 -2.377400
							CHANNELS 3 Xrotation Yrotation Zrotation
							JOINT HeadTop_End
							{
								OFFSET 0.000000 43.788605 -13.619600
								CHANNELS 3 Xrotation Yrotation Zrotation
								End Site
								{
									OFFSET 0.000000 0.000000 0.000000
								}
							}
						}
					}
					JOINT LeftShoulder
					{
						OFFSET 2.196100 4.412489 0.087492
						CHANNELS 3 Xrotation Yrotation Zrotation
						JOINT LeftShoulder_split
						{
							OFFSET 2.196100 4.412489 0.087492
							CHANNELS 3 Xrotation Yrotation Zrotation
							JOINT LeftArm
							{
								OFFSET 8.771219 -2.981674 -0.026999
								CHANNELS 3 Xrotation Yrotation Zrotation
								JOINT LeftForeArm
								{
									OFFSET 8.512804 0.000000 -0.000000
									CHANNELS 3 Xrotation Yrotation Zrotation
									JOINT LeftHand
									{
										OFFSET 18.484802 0.000000 -0.000000
										CHANNELS 3 Xrotation Yrotation Zrotation
										JOINT LeftHandThumb1
										{
											OFFSET 2.499420 -1.158070 2.653252
											CHANNELS 3 Xrotation Yrotation Zrotation
											JOINT LeftHandThumb2
											{
												OFFSET 2.370079 -1.368366 1.368366
												CHANNELS 3 Xrotation Yrotation Zrotation
												JOINT LeftHandThumb3
												{
													OFFSET 2.676727 -1.545410 1.545409
													CHANNELS 3 Xrotation Yrotation Zrotation
													JOINT LeftHandThumb4
													{
														OFFSET 1.692226 -0.977005 0.977007
														CHANNELS 3 Xrotation Yrotation Zrotation
														End Site
														{
															OFFSET 0.000000 0.000000 0.000000
														}
													}
												}
											}
										}
										JOINT LeftHandIndex1
										{
											OFFSET 7.924831 -0.457527 2.345128
											CHANNELS 3 Xrotation Yrotation Zrotation
											JOINT LeftHandIndex2
											{
												OFFSET 3.643303 0.000000 0.000000
												CHANNELS 3 Xrotation Yrotation Zrotation
												JOINT LeftHandIndex3
												{
													OFFSET 3.810799 0.000000 0.000000
													CHANNELS 3 Xrotation Yrotation Zrotation
													JOINT LeftHandIndex4
													{
														OFFSET 2.403702 0.000000 0.000000
														CHANNELS 3 Xrotation Yrotation Zrotation
														End Site
														{
															OFFSET 0.000000 0.000000 0.000000
														}
													}
												}
											}
										}
										JOINT LeftHandMiddle1
										{
											OFFSET 8.563995 0.000000 -0.000000
											CHANNELS 3 Xrotation Yrotation Zrotation
											JOINT LeftHandMiddle2
											{
												OFFSET 3.861618 0.000000 0.000000
												CHANNELS 3 Xrotation Yrotation Zrotation
												JOINT LeftHandMiddle3
												{
													OFFSET 3.701603 0.000000 0.000000
													CHANNELS 3 Xrotation Yrotation Zrotation
													JOINT LeftHandMiddle4
													{
														OFFSET 2.322544 0.000000 0.000000
														CHANNELS 3 Xrotation Yrotation Zrotation
														End Site
														{
															OFFSET 0.000000 0.000000 0.000000
														}
													}
												}
											}
										}
										JOINT LeftHandRing1
										{
											OFFSET 8.426460 -0.424637 -3.286992
											CHANNELS 3 Xrotation Yrotation Zrotation
											JOINT LeftHandRing2
											{
												OFFSET 3.126408 0.000000 0.000000
												CHANNELS 3 Xrotation Yrotation Zrotation
												JOINT LeftHandRing3
												{
													OFFSET 3.085026 0.000000 0.000000
													CHANNELS 3 Xrotation Yrotation Zrotation
													JOINT LeftHandRing4
													{
														OFFSET 1.644005 0.000000 0.000000
														CHANNELS 3 Xrotation Yrotation Zrotation
														End Site
														{
															OFFSET 0.000000 0.000000 0.000000
														}
													}
												}
											}
										}
									}
								}
							}
						}
					}
					JOINT RightShoulder
					{
						OFFSET -2.196100 4.412496 0.070690
						CHANNELS 3 Xrotation Yrotation Zrotation
						JOINT RightShoulder_split
						{
							OFFSET -2.196100 4.412496 0.070690
							CHANNELS 3 Xrotation Yrotation Zrotation
							JOINT RightArm
							{
								OFFSET -8.771282 -2.981682 -0.094208
								CHANNELS 3 Xrotation Yrotation Zrotation
								JOINT RightForeArm
								{
									OFFSET -8.494598 0.000000 0.000000
									CHANNELS 3 Xrotation Yrotation Zrotation
									JOINT RightHand
									{
										OFFSET -18.483803 0.000000 0.000001
										CHANNELS 3 Xrotation Yrotation Zrotation
										JOINT RightHandThumb1
										{
											OFFSET -2.527351 -1.008072 2.575253
											CHANNELS 3 Xrotation Yrotation Zrotation
											JOINT RightHandThumb2
											{
												OFFSET -2.321518 -1.340328 1.340329
												CHANNELS 3 Xrotation Yrotation Zrotation
												JOINT RightHandThumb3
												{
													OFFSET -2.657753 -1.534454 1.534455
													CHANNELS 3 Xrotation Yrotation Zrotation
													JOINT RightHandThumb4
													{
														OFFSET -1.807510 -1.043568 1.043567
														CHANNELS 3 Xrotation Yrotation Zrotation
														End Site
														{
															OFFSET 0.000000 0.000000 0.000000
														}
													}
												}
											}
										}
										JOINT RightHandIndex1
										{
											OFFSET -8.811420 0.015533 2.887987
											CHANNELS 3 Xrotation Yrotation Zrotation
											JOINT RightHandIndex2
											{
												OFFSET -3.537502 0.000000 0.000000
												CHANNELS 3 Xrotation Yrotation Zrotation
												JOINT RightHandIndex3
												{
													OFFSET -3.356201 0.000000 0.000000
													CHANNELS 3 Xrotation Yrotation Zrotation
													JOINT RightHandIndex4
													{
														OFFSET -1.933098 0.000000 0.000000
														CHANNELS 3 Xrotation Yrotation Zrotation
														End Site
														{
															OFFSET 0.000000 0.000000 0.000000
														}
													}
												}
											}
										}
										JOINT RightHandMiddle1
										{
											OFFSET -8.178135 0.000000 0.000000
											CHANNELS 3 Xrotation Yrotation Zrotation
											JOINT RightHandMiddle2
											{
												OFFSET -3.901302 0.000000 0.000000
												CHANNELS 3 Xrotation Yrotation Zrotation
												JOINT RightHandMiddle3
												{
													OFFSET -3.909599 0.000000 0.000000
													CHANNELS 3 Xrotation Yrotation Zrotation
													JOINT RightHandMiddle4
													{
														OFFSET -2.376003 0.000000 0.000000
														CHANNELS 3 Xrotation Yrotation Zrotation
														End Site
														{
															OFFSET 0.000000 0.000000 0.000000
														}
													}
												}
											}
										}
										JOINT RightHandRing1
										{
											OFFSET -7.559013 0.014137 -2.865403
											CHANNELS 3 Xrotation Yrotation Zrotation
											JOINT RightHandRing2
											{
												OFFSET -3.449306 0.000000 0.000000
												CHANNELS 3 Xrotation Yrotation Zrotation
												JOINT RightHandRing3
												{
													OFFSET -3.362106 0.000000 0.000000
													CHANNELS 3 Xrotation Yrotation Zrotation
													JOINT RightHandRing4
													{
														OFFSET -2.076401 0.000000 0.000000
														CHANNELS 3 Xrotation Yrotation Zrotation
														End Site
														{
															OFFSET 0.000000 0.000000 0.000000
														}
													}
												}
											}
										}
									}
								}
							}
						}
					}
				}
			}
		}
	}
	JOINT LeftUpLeg
	{
		OFFSET 10.205400 -3.823500 0.155100
		CHANNELS 3 Xrotation Yrotation Zrotation
		JOINT LeftLeg
		{
			OFFSET 0.708757 -12.982077 0.567790
			CHANNELS 3 Xrotation Yrotation Zrotation
			JOINT LeftFoot
			{
				OFFSET -0.708756 -10.717838 -2.184338
				CHANNELS 3 Xrotation Yrotation Zrotation
				JOINT LeftToeBase
				{
					OFFSET 0.108149 -7.191104 7.560241
					CHANNELS 3 Xrotation Yrotation Zrotation
					JOINT LeftToe_End
					{
						OFFSET 0.070230 0.081724 4.490308
						CHANNELS 3 Xrotation Yrotation Zrotation
						End Site
						{
							OFFSET 0.000000 0.000000 0.000000
						}
					}
				}
			}
		}
	}
	JOINT RightUpLeg
	{
		OFFSET -10.205400 -3.823500 0.005500
		CHANNELS 3 Xrotation Yrotation Zrotation
		JOINT RightLeg
		{
			OFFSET -0.708756 -12.982134 0.610632
			CHANNELS 3 Xrotation Yrotation Zrotation
			JOINT RightFoot
			{
				OFFSET 0.708754 -10.717769 -1.945823
				CHANNELS 3 Xrotation Yrotation Zrotation
				JOINT RightToeBase
				{
					OFFSET -0.108140 -7.191069 7.372968
					CHANNELS 3 Xrotation Yrotation Zrotation
					JOINT RightToe_End
					{
						OFFSET -0.070227 0.081735 4.479403
						CHANNELS 3 Xrotation Yrotation Zrotation
						End Site
						{
							OFFSET 0.000000 0.000000 0.000000
						}
					}
				}
			}
		}
	}
}
MOTION
Frames: 4
Frame Time: 0.016667
0.287104 28.350452 0.375741 11.811807 3.024687 -1.230313 9.877546 1.403221 1.104994 7.603460 0.776394 0.053755 0.000000 0.000000 0.000000 7.594524 0.865696 0.034386 -11.221148 -1.914916 7.441274 -27.443505 2.006291 -5.891918 0.000000 -0.000000 0.000000 3.557337 -26.212560 4.772367 0.000000 0.000000 0.000000 -62.448720 -21.862968 -66.788212 -0.000039 -109.334315 -0.000047 0.750542 -5.137689 14.576863 -15.245220 10.163074 26.456307 3.939044 7.948712 0.746802 -0.579460 1.575000 2.538722 -0.000004 0.000000 -0.000004 0.000001 0.000017 0.000007 0.000002 0.000008 -0.000064 -0.000006 0.000012 -0.000055 0.000001 0.000000 0.000001 -0.000006 -0.001923 0.015981 -0.000002 0.001961 -0.016046 0.000000 0.000005 -0.000056 0.000001 0.000003 -0.000001 -0.000004 -0.000003 0.000003 0.000007 0.000021 -0.000064 -0.000007 0.000007 -0.000055 -0.000000 0.000001 0.000001 1.196402 13.130280 10.955127 0.000000 0.000000 0.000000 -58.753253 43.561205 51.473781 0.000033 106.323950 -0.000050 3.436642 -3.949660 -38.593526 -6.948226 -5.049332 -29.743005 4.637208 -8.634139 -0.225400 -1.273759 0.137309 -2.094860 0.000001 -0.000000 -0.000000 0.000001 0.000014 -0.000005 0.000004 -0.000021 0.000086 0.000003 0.000004 0.000023 0.000000 -0.000001 -0.000000 -0.000003 0.000012 0.000000 0.000008 -0.000018 0.000082 -0.000004 0.000018 0.000020 -0.000000 0.000001 0.000000 0.000013 0.000007 0.000002 -0.000002 -0.000011 0.000081 -0.000010 0.000002 0.000025 0.000000 0.000001 -0.000000 -49.341976 2.125650 4.428429 81.386321 6.711933 -0.498603 -42.717174 7.189944 -5.963696 -0.000014 -0.000008 -0.000003 0.000000 -0.000003 -0.000000 -39.966244 -15.745227 -3.546800 78.434771 -7.448199 -4.652859 -50.322488 -12.661421 5.181811 0.000016 0.000003 -0.000001 0.000000 -0.000000 0.000000 
0.286165 28.349384 0.374615 11.799729 3.014644 -1.224369 9.881229 1.397770 1.112604 7.606518 0.771334 0.057330 0.000000 0.000000 0.000000 7.597689 0.860256 0.038071 -11.217815 -1.906714 7.417773 -27.445208 2.029513 -5.944888 0.000000 0.000000 -0.000000 3.557343 -26.212562 4.772367 0.000000 0.000000 0.000000 -62.440278 -21.827246 -66.761711 -0.000030 -109.308715 -0.000042 0.684120 -5.143287 14.587534 -15.245218 10.163079 26.456309 3.939041 7.948708 0.746801 -0.579462 1.574996 2.538723 -0.000001 0.000000 -0.000000 0.000003 0.000016 0.000006 0.000000 0.000006 -0.000067 -0.000007 0.000012 -0.000054 0.000001 -0.000002 0.000002 -0.000004 -0.001921 0.015981 0.000003 0.001950 -0.016047 -0.000001 0.000008 -0.000054 0.000001 -0.000001 -0.000002 -0.000003 0.000002 0.000003 0.000004 0.000019 -0.000063 -0.000008 0.000006 -0.000056 -0.000000 0.000002 0.000001 1.196376 13.156137 10.917901 0.000000 0.000000 0.000000 -58.738828 43.556188 51.453239 -0.000035 106.272675 0.000016 3.405184 -3.961058 -38.612084 -6.948226 -5.049330 -29.743008 4.637205 -8.634137 -0.225399 -1.273761 0.137304 -2.094859 -0.000000 0.000001 0.000003 0.000002 0.000012 -0.000005 0.000005 -0.000015 0.000085 0.000003 0.000004 0.000023 0.000000 0.000000 0.000000 -0.000003 0.000006 0.000001 0.000009 -0.000019 0.000082 -0.000004 0.000017 0.000020 0.000000 0.000003 0.000001 0.000013 0.000006 0.000002 -0.000002 -0.000013 0.000081 -0.000010 0.000007 0.000025 -0.000000 -0.000003 -0.000000 -49.325294 2.125815 4.430699 81.389702 6.713801 -0.501664 -42.725029 7.193801 -5.968515 -0.000014 -0.000007 -0.000003 0.000000 -0.000004 -0.000000 -39.967166 -15.745690 -3.540862 78.448124 -7.450630 -4.666314 -50.325039 -12.664356 5.180140 0.000014 -0.000003 -0.000002 0.000000 0.000000 -0.000000 
0.285281 28.348236 0.373616 11.790325 3.007033 -1.219639 9.884398 1.392092 1.119200 7.609032 0.766256 0.060674 0.000000 0.000000 0.000000 7.600272 0.854942 0.041497 -11.217688 -1.900473 7.402069 -27.452695 2.051494 -5.990264 0.000000 -0.000000 0.000000 3.557340 -26.212560 4.772371 0.000000 0.000000 0.000000 -62.433509 -21.799064 -66.740299 0.000026 -109.303026 0.000036 0.645380 -5.153772 14.610237 -15.245218 10.163075 26.456307 3.939046 7.948710 0.746806 -0.579457 1.575003 2.538725 -0.000003 -0.000002 -0.000000 0.000001 0.000015 0.000007 0.000005 0.000002 -0.000065 -0.000005 0.000012 -0.000057 0.000000 -0.000003 -0.000002 -0.000004 -0.001930 0.015982 0.000001 0.001958 -0.016047 0.000000 0.000005 -0.000054 0.000000 -0.000001 -0.000001 -0.000005 -0.000002 0.000003 0.000007 0.000017 -0.000065 -0.000009 0.000012 -0.000054 0.000000 -0.000000 0.000001 1.196234 13.178823 10.886484 0.000000 0.000000 0.000000 -58.723351 43.560341 51.421066 -0.000002 106.244685 -0.000032 3.384686 -3.970385 -38.621267 -6.948222 -5.049335 -29.743012 4.637206 -8.634138 -0.225401 -1.273758 0.137306 -2.094864 0.000002 0.000000 0.000006 0.000001 0.000010 -0.000004 0.000005 -0.000017 0.000085 0.000003 0.000004 0.000023 0.000000 0.000001 -0.000000 -0.000003 0.000005 0.000001 0.000009 -0.000022 0.000083 -0.000004 0.000021 0.000020 0.000000 -0.000003 0.000000 0.000012 0.000001 0.000003 -0.000002 -0.000013 0.000081 -0.000009 0.000006 0.000025 0.000000 -0.000000 -0.000000 -49.312941 2.126476 4.431204 81.393828 6.715981 -0.502192 -42.732389 7.199379 -5.972792 -0.000012 -0.000010 -0.000003 0.000000 -0.000002 -0.000000 -39.969352 -15.751145 -3.538264 78.460541 -7.451724 -4.679035 -50.329191 -12.664195 5.178879 0.000014 0.000003 0.000000 0.000000 -0.000001 -0.000000 
0.284515 28.347088 0.372825 11.784194 3.001824 -1.215905 9.887148 1.385833 1.123912 7.610898 0.761038 0.063447 0.000000 0.000000 0.000000 7.602202 0.849653 0.044323 -11.220980 -1.896257 7.395011 -27.466498 2.071050 -6.020808 0.000000 -0.000000 0.000000 3.557344 -26.212558 4.772370 0.000000 0.000000 0.000000 -62.430463 -21.781197 -66.726351 -0.000020 -109.318414 -0.000012 0.640075 -5.168581 14.635395 -15.245220 10.163070 26.456307 3.939043 7.948711 0.746803 -0.579458 1.575000 2.538722 -0.000003 0.000001 -0.000003 0.000003 0.000012 0.000007 0.000003 0.000004 -0.000063 -0.000009 0.000015 -0.000055 -0.000001 0.000003 -0.000000 -0.000004 -0.001931 0.015984 0.000000 0.001960 -0.016047 -0.000001 0.000002 -0.000057 -0.000001 -0.000000 -0.000003 -0.000005 -0.000003 0.000005 0.000004 0.000018 -0.000064 -0.000008 0.000008 -0.000056 -0.000001 0.000000 -0.000002 1.195817 13.196531 10.865748 0.000000 0.000000 0.000000 -58.712723 43.570760 51.388574 -0.000028 106.243866 0.000018 3.384058 -3.974718 -38.619904 -6.948226 -5.049342 -29.743008 4.637201 -8.634133 -0.225398 -1.273765 0.137313 -2.094861 -0.000001 0.000002 -0.000000 0.000001 0.000006 -0.000004 0.000005 -0.000015 0.000085 0.000003 0.000006 0.000023 -0.000000 -0.000001 0.000000 -0.000003 0.000006 0.000001 0.000009 -0.000020 0.000082 -0.000004 0.000015 0.000020 -0.000000 -0.000003 0.000000 0.000012 -0.000000 0.000002 -0.000002 -0.000009 0.000081 -0.000009 0.000010 0.000025 0.000000 0.000002 -0.000000 -49.306070 2.127838 4.429719 81.398465 6.718514 -0.499702 -42.738065 7.205354 -5.976829 -0.000013 -0.000006 -0.000003 -0.000000 0.000000 0.000000 -39.973231 -15.759159 -3.539710 78.472207 -7.450495 -4.688600 -50.334102 -12.660911 5.177558 0.000014 0.000000 -0.000003 0.000000 0.000002 -0.000000 
